<?xml version="1.0" encoding="utf-8"?>
<!-- Generator: Adobe Illustrator 25.2.3, SVG Export Plug-In . SVG Version: 6.00 Build 0)  -->
<svg version="1.1" id="Layer_1" xmlns="http://www.w3.org/2000/svg" xmlns:xlink="http://www.w3.org/1999/xlink" x="0px" y="0px"
	 viewBox="0 0 1366 768" style="enable-background:new 0 0 1366 768;" xml:space="preserve">
<style type="text/css">
	.st0{fill:#1B1464;}
	.st1{fill:url(#SVGID_1_);}
	.st2{fill:url(#SVGID_2_);}
	.st3{fill:url(#SVGID_3_);}
</style>
<g>
	<path class="st0" d="M-1368,299.44v32.93c0-9.42-7.3-17.05-16.32-17.05c-9.02,0-16.32,7.63-16.32,17.05v63.54
		c0,4.71-2.01,8.97-5.26,12.06c-3.25,3.08-7.74,4.99-12.7,4.99c-9.92,0-17.95-7.63-17.95-17.05v-63.54
		c0-9.42-8.04-17.05-17.95-17.05s-17.95,7.63-17.95,17.05v204.58c0,4.71-2.01,8.97-5.26,12.06c-3.25,3.08-7.74,4.99-12.7,4.99
		c-9.92,0-17.95-7.63-17.95-17.05v-25.57c0,4.71-2.01,8.97-5.26,12.06c-3.25,3.08-7.74,4.99-12.7,4.99
		c-9.92,0-17.95-7.63-17.95-17.05V351.74c0-9.42-8.04-17.05-17.95-17.05s-17.95,7.63-17.95,17.05v4.65c0,4.71-2.01,8.97-5.26,12.06
		c-3.25,3.08-7.74,4.99-12.7,4.99c-9.92,0-17.95-7.63-17.95-17.05v-35.65c0-9.42-8.04-17.05-17.95-17.05s-17.95,7.63-17.95,17.05
		v-21.3c0-20.68,17.82-37.59,39.59-37.59h204.82C-1385.82,261.85-1368,278.77-1368,299.44z"/>
	<linearGradient id="SVGID_1_" gradientUnits="userSpaceOnUse" x1="-1378.1903" y1="212.1464" x2="-1621.819" y2="511.1886">
		<stop  offset="0.1876" style="stop-color:#72E7D2"/>
		<stop  offset="0.2717" style="stop-color:#6DDED8"/>
		<stop  offset="0.411" style="stop-color:#5FC4E9"/>
		<stop  offset="0.4266" style="stop-color:#5DC1EB"/>
		<stop  offset="0.5284" style="stop-color:#64A5EC"/>
		<stop  offset="0.6245" style="stop-color:#698FEC"/>
		<stop  offset="0.8314" style="stop-color:#8C62E2"/>
	</linearGradient>
	<path class="st1" d="M-1544.28,350.19v157.78c-60.01-4.2-107.72-52.12-107.72-110.13v-78.66c0-9.42,8.04-17.05,17.95-17.05
		s17.95,7.63,17.95,17.05v35.65c0,9.42,8.04,17.05,17.95,17.05c4.96,0,9.45-1.91,12.7-4.99c3.25-3.08,5.26-7.35,5.26-12.06v-4.65
		c0-9.42,8.04-17.05,17.95-17.05S-1544.28,340.78-1544.28,350.19z M-1384.32,313.77c-9.02,0-16.32,7.63-16.32,17.05v63.54
		c0,4.71-2.01,8.97-5.26,12.06c-3.25,3.08-7.74,4.99-12.7,4.99c-9.92,0-17.95-7.63-17.95-17.05v-63.54
		c0-9.42-8.04-17.05-17.95-17.05s-17.95,7.63-17.95,17.05v176.73c58.79-6.39,104.46-53.8,104.46-111.34v-65.39
		C-1368,321.4-1375.3,313.77-1384.32,313.77z M-1544.28,302.15L-1544.28,302.15c0-9.42-7.63-17.05-17.05-17.05h-1.81
		c-9.42,0-17.05,7.63-17.05,17.05v0c0,9.42,7.63,17.05,17.05,17.05h1.81C-1551.91,319.19-1544.28,311.56-1544.28,302.15z
		 M-1436.55,284.19v-15.24c0-9.92-8.04-17.95-17.95-17.95l0,0c-9.92,0-17.95,8.04-17.95,17.95v15.24c0,9.92,8.04,17.95,17.95,17.95
		l0,0C-1444.59,302.15-1436.55,294.11-1436.55,284.19z"/>
	<path class="st0" d="M-1598.14,423.81L-1598.14,423.81c-9.92,0-17.95-8.04-17.95-17.95v-5.94c0-9.92,8.04-17.95,17.95-17.95l0,0
		c9.92,0,17.95,8.04,17.95,17.95v5.94C-1580.18,415.77-1588.22,423.81-1598.14,423.81z"/>
</g>
<linearGradient id="SVGID_2_" gradientUnits="userSpaceOnUse" x1="-1413" y1="201" x2="-1413" y2="245">
	<stop  offset="0" style="stop-color:#72E7D2"/>
	<stop  offset="0.0736" style="stop-color:#6DDED8"/>
	<stop  offset="0.1956" style="stop-color:#5FC4E9"/>
	<stop  offset="0.2093" style="stop-color:#5DC1EB"/>
	<stop  offset="0.4228" style="stop-color:#64A5EC"/>
	<stop  offset="0.6245" style="stop-color:#698FEC"/>
	<stop  offset="0.9944" style="stop-color:#8C62E2"/>
</linearGradient>
<path class="st2" d="M-1411.4,245h-3.19c-11.27,0-20.4-9.13-20.4-20.4v-3.19c0-11.27,9.13-20.4,20.4-20.4h3.19
	c11.27,0,20.4,9.13,20.4,20.4v3.19C-1391,235.87-1400.13,245-1411.4,245z"/>
<g>
	<g>
		<path class="st0" d="M-1271.96,327.85h-35.25v-7.5h78.9v7.5h-35.4v97.5h-8.25V327.85z"/>
		<path class="st0" d="M-1213.46,388.74c0.15,19.35,9.9,31.35,24.3,31.35c14.1,0,18.9-7.95,21.6-14.1h7.65
			c-3.15,9.9-11.1,21.15-29.55,21.15c-22.8,0-31.65-19.65-31.65-38.7c0-21.45,10.65-39.9,32.55-39.9c23.1,0,30.45,19.95,30.45,34.05
			c0,2.1,0,4.2-0.15,6.15H-1213.46z M-1165.91,382.14c-0.15-14.85-8.25-26.55-22.95-26.55c-15.45,0-22.5,10.8-24.15,26.55H-1165.91z
			"/>
		<path class="st0" d="M-1084.61,403.29c-3.6,13.2-12.3,23.85-29.1,23.85c-18.75,0-32.1-13.95-32.1-39c0-20.55,10.95-39.6,33-39.6
			c19.05,0,26.85,13.5,28.2,24h-7.65c-2.25-8.7-7.95-16.95-20.7-16.95c-15.9,0-24.9,13.5-24.9,32.25c0,17.85,8.4,32.25,24.15,32.25
			c10.95,0,17.55-5.55,21.45-16.8H-1084.61z"/>
		<path class="st0" d="M-1059.71,314.8v48.15c4.2-7.8,11.55-14.4,24.75-14.4c10.65,0,25.35,5.4,25.35,29.1v47.7h-7.5v-46.2
			c0-14.85-6.75-23.25-19.2-23.25c-14.85,0-23.4,9.15-23.4,27.6v41.85h-7.5V314.8H-1059.71z"/>
		<path class="st0" d="M-985.01,369.24c0-6.6,0-12.9-0.15-18.9h7.35c0.3,2.4,0.45,12.15,0.3,14.25c3.3-7.65,9.45-16.05,24.9-16.05
			c13.35,0,25.2,7.5,25.2,28.2v48.6h-7.5v-47.4c0-13.35-5.55-22.05-18.6-22.05c-17.85,0-24,14.85-24,31.2v38.25h-7.5V369.24z"/>
		<path class="st0" d="M-902.82,314.8h7.5v14.55h-7.5V314.8z M-902.82,350.34h7.5v75h-7.5V350.34z"/>
		<path class="st0" d="M-881.97,350.34h13.95v-23.4h7.5v23.4h17.85v7.05h-17.85v48.75c0,8.4,1.8,13.2,9,13.2
			c2.25,0,5.4-0.15,7.8-0.9v6.6c-2.55,1.05-6.15,1.35-9.3,1.35c-9.6,0-15-4.8-15-16.8v-52.2h-13.95V350.34z"/>
		<path class="st0" d="M-827.37,370.74c0-12.6-0.15-18-0.15-20.4h7.35c0.15,2.4,0.3,7.2,0.3,16.8c4.35-11.25,13.95-18,26.1-18.6v8.1
			c-15.6,1.05-26.1,11.85-26.1,29.7v39h-7.5V370.74z"/>
		<path class="st0" d="M-727.32,411.09c0,6.6,0.6,11.85,1.05,14.25h-7.2c-0.6-1.8-1.05-5.1-1.35-11.55
			c-2.55,5.55-9.15,13.35-24.6,13.35c-17.4,0-24.9-11.25-24.9-22.5c0-16.5,12.75-24,35.25-24c6.3,0,11.25,0,14.25,0v-7.65
			c0-7.5-2.25-17.55-19.35-17.55c-15.15,0-17.4,7.95-19.05,14.1h-7.5c0.9-8.25,6-21,26.7-21c17.1,0,26.7,7.2,26.7,23.7V411.09z
			 M-734.67,387.09c-2.85,0-9.75,0-14.7,0c-16.65,0-27,4.35-27,17.25c0,9.45,6.75,15.9,17.25,15.9c21.45,0,24.45-14.25,24.45-30.45
			V387.09z"/>
		<path class="st0" d="M-644.67,314.8v88.95c0,7.2,0,14.1,0.15,21.6h-7.2c-0.3-1.8-0.45-8.85-0.45-12.6
			c-3.75,9.15-12.15,14.4-25.2,14.4c-19.5,0-31.2-15.9-31.2-38.4c0-23.1,12.75-40.2,33.15-40.2c15,0,21,6.45,23.25,11.25v-45
			H-644.67z M-700.62,388.44c0,20.55,10.65,31.65,23.55,31.65c19.8,0,25.2-13.65,25.2-34.05c0-19.35-4.65-30.45-23.85-30.45
			C-690.57,355.59-700.62,367.44-700.62,388.44z"/>
		<path class="st0" d="M-618.42,388.74c0.15,19.35,9.9,31.35,24.3,31.35c14.1,0,18.9-7.95,21.6-14.1h7.65
			c-3.15,9.9-11.1,21.15-29.55,21.15c-22.8,0-31.65-19.65-31.65-38.7c0-21.45,10.65-39.9,32.55-39.9c23.1,0,30.45,19.95,30.45,34.05
			c0,2.1,0,4.2-0.15,6.15H-618.42z M-570.88,382.14c-0.15-14.85-8.25-26.55-22.95-26.55c-15.45,0-22.5,10.8-24.15,26.55H-570.88z"/>
	</g>
</g>
<g>
	<g>
		<path class="st0" d="M460,299.44v32.93c0-9.42-7.3-17.05-16.32-17.05s-16.32,7.63-16.32,17.05v63.54c0,4.71-2.01,8.97-5.26,12.06
			c-3.25,3.08-7.74,4.99-12.7,4.99c-9.92,0-17.95-7.63-17.95-17.05v-63.54c0-9.42-8.04-17.05-17.95-17.05
			c-9.92,0-17.95,7.63-17.95,17.05v204.58c0,4.71-2.01,8.97-5.26,12.06c-3.25,3.08-7.74,4.99-12.7,4.99
			c-9.92,0-17.95-7.63-17.95-17.05v-25.57c0,4.71-2.01,8.97-5.26,12.06c-3.25,3.08-7.74,4.99-12.7,4.99
			c-9.92,0-17.95-7.63-17.95-17.05V351.74c0-9.42-8.04-17.05-17.95-17.05s-17.95,7.63-17.95,17.05v4.65c0,4.71-2.01,8.97-5.26,12.06
			c-3.25,3.08-7.74,4.99-12.7,4.99c-9.92,0-17.95-7.63-17.95-17.05v-35.65c0-9.42-8.04-17.05-17.95-17.05
			c-9.92,0-17.95,7.63-17.95,17.05v-21.3c0-20.68,17.82-37.59,39.59-37.59h204.82C442.18,261.85,460,278.77,460,299.44z"/>
		<linearGradient id="SVGID_3_" gradientUnits="userSpaceOnUse" x1="449.8097" y1="212.1464" x2="206.181" y2="511.1886">
			<stop  offset="0.1876" style="stop-color:#72E7D2"/>
			<stop  offset="0.2717" style="stop-color:#6DDED8"/>
			<stop  offset="0.411" style="stop-color:#5FC4E9"/>
			<stop  offset="0.4266" style="stop-color:#5DC1EB"/>
			<stop  offset="0.5284" style="stop-color:#64A5EC"/>
			<stop  offset="0.6245" style="stop-color:#698FEC"/>
			<stop  offset="0.8314" style="stop-color:#8C62E2"/>
		</linearGradient>
		<path class="st3" d="M283.72,350.19v157.78C223.72,503.78,176,455.85,176,397.85v-78.66c0-9.42,8.04-17.05,17.95-17.05
			c9.92,0,17.95,7.63,17.95,17.05v35.65c0,9.42,8.04,17.05,17.95,17.05c4.96,0,9.45-1.91,12.7-4.99c3.25-3.08,5.26-7.35,5.26-12.06
			v-4.65c0-9.42,8.04-17.05,17.95-17.05S283.72,340.78,283.72,350.19z M443.68,313.77c-9.02,0-16.32,7.63-16.32,17.05v63.54
			c0,4.71-2.01,8.97-5.26,12.06c-3.25,3.08-7.74,4.99-12.7,4.99c-9.92,0-17.95-7.63-17.95-17.05v-63.54
			c0-9.42-8.04-17.05-17.95-17.05c-9.92,0-17.95,7.63-17.95,17.05v176.73C414.33,501.16,460,453.75,460,396.21v-65.39
			C460,321.4,452.7,313.77,443.68,313.77z M283.72,302.15L283.72,302.15c0-9.42-7.63-17.05-17.05-17.05h-1.81
			c-9.42,0-17.05,7.63-17.05,17.05v0c0,9.42,7.63,17.05,17.05,17.05h1.81C276.09,319.19,283.72,311.56,283.72,302.15z
			 M391.45,284.19v-15.24c0-9.92-8.04-17.95-17.95-17.95h0c-9.92,0-17.95,8.04-17.95,17.95v15.24c0,9.92,8.04,17.95,17.95,17.95h0
			C383.41,302.15,391.45,294.11,391.45,284.19z"/>
		<path class="st0" d="M229.86,423.81L229.86,423.81c-9.92,0-17.95-8.04-17.95-17.95v-5.94c0-9.92,8.04-17.95,17.95-17.95h0
			c9.92,0,17.95,8.04,17.95,17.95v5.94C247.82,415.77,239.78,423.81,229.86,423.81z"/>
	</g>
	<g>
		<path class="st0" d="M556.04,327.85h-35.25v-7.5h78.9v7.5h-35.4v97.5h-8.25V327.85z"/>
		<path class="st0" d="M598.34,388.74c0.15,19.35,9.9,31.35,24.3,31.35c14.1,0,18.9-7.95,21.6-14.1h7.65
			c-3.15,9.9-11.1,21.15-29.55,21.15c-22.8,0-31.65-19.65-31.65-38.7c0-21.45,10.65-39.9,32.55-39.9c23.1,0,30.45,19.95,30.45,34.05
			c0,2.1,0,4.2-0.15,6.15H598.34z M645.89,382.14c-0.15-14.85-8.25-26.55-22.95-26.55c-15.45,0-22.5,10.8-24.15,26.55H645.89z"/>
		<path class="st0" d="M727.94,403.29c-3.6,13.2-12.3,23.85-29.1,23.85c-18.75,0-32.1-13.95-32.1-39c0-20.55,10.95-39.6,33-39.6
			c19.05,0,26.85,13.5,28.2,24h-7.65c-2.25-8.7-7.95-16.95-20.7-16.95c-15.9,0-24.9,13.5-24.9,32.25c0,17.85,8.4,32.25,24.15,32.25
			c10.95,0,17.55-5.55,21.45-16.8H727.94z"/>
		<path class="st0" d="M752.84,314.8v48.15c4.2-7.8,11.55-14.4,24.75-14.4c10.65,0,25.35,5.4,25.35,29.1v47.7h-7.5v-46.2
			c0-14.85-6.75-23.25-19.2-23.25c-14.85,0-23.4,9.15-23.4,27.6v41.85h-7.5V314.8H752.84z"/>
		<path class="st0" d="M827.54,369.24c0-6.6,0-12.9-0.15-18.9h7.35c0.3,2.4,0.45,12.15,0.3,14.25c3.3-7.65,9.45-16.05,24.9-16.05
			c13.35,0,25.2,7.5,25.2,28.2v48.6h-7.5v-47.4c0-13.35-5.55-22.05-18.6-22.05c-17.85,0-24,14.85-24,31.2v38.25h-7.5V369.24z"/>
		<path class="st0" d="M909.73,314.8h7.5v14.55h-7.5V314.8z M909.73,350.34h7.5v75h-7.5V350.34z"/>
		<path class="st0" d="M931.63,350.34h13.95v-23.4h7.5v23.4h17.85v7.05h-17.85v48.75c0,8.4,1.8,13.2,9,13.2c2.25,0,5.4-0.15,7.8-0.9
			v6.6c-2.55,1.05-6.15,1.35-9.3,1.35c-9.6,0-15-4.8-15-16.8v-52.2h-13.95V350.34z"/>
		<path class="st0" d="M984.88,370.74c0-12.6-0.15-18-0.15-20.4h7.35c0.15,2.4,0.3,7.2,0.3,16.8c4.35-11.25,13.95-18,26.1-18.6v8.1
			c-15.6,1.05-26.1,11.85-26.1,29.7v39h-7.5V370.74z"/>
		<path class="st0" d="M1082.38,411.09c0,6.6,0.6,11.85,1.05,14.25h-7.2c-0.6-1.8-1.05-5.1-1.35-11.55
			c-2.55,5.55-9.15,13.35-24.6,13.35c-17.4,0-24.9-11.25-24.9-22.5c0-16.5,12.75-24,35.25-24c6.3,0,11.25,0,14.25,0v-7.65
			c0-7.5-2.25-17.55-19.35-17.55c-15.15,0-17.4,7.95-19.05,14.1h-7.5c0.9-8.25,6-21,26.7-21c17.1,0,26.7,7.2,26.7,23.7V411.09z
			 M1075.03,387.09c-2.85,0-9.75,0-14.7,0c-16.65,0-27,4.35-27,17.25c0,9.45,6.75,15.9,17.25,15.9c21.45,0,24.45-14.25,24.45-30.45
			V387.09z"/>
		<path class="st0" d="M1165.03,314.8v88.95c0,7.2,0,14.1,0.15,21.6h-7.2c-0.3-1.8-0.45-8.85-0.45-12.6
			c-3.75,9.15-12.15,14.4-25.2,14.4c-19.5,0-31.2-15.9-31.2-38.4c0-23.1,12.75-40.2,33.15-40.2c15,0,21,6.45,23.25,11.25v-45
			H1165.03z M1109.08,388.44c0,20.55,10.65,31.65,23.55,31.65c19.8,0,25.2-13.65,25.2-34.05c0-19.35-4.65-30.45-23.85-30.45
			C1119.13,355.59,1109.08,367.44,1109.08,388.44z"/>
		<path class="st0" d="M1191.28,388.74c0.15,19.35,9.9,31.35,24.3,31.35c14.1,0,18.9-7.95,21.6-14.1h7.65
			c-3.15,9.9-11.1,21.15-29.55,21.15c-22.8,0-31.65-19.65-31.65-38.7c0-21.45,10.65-39.9,32.55-39.9c23.1,0,30.45,19.95,30.45,34.05
			c0,2.1,0,4.2-0.15,6.15H1191.28z M1238.82,382.14c-0.15-14.85-8.25-26.55-22.95-26.55c-15.45,0-22.5,10.8-24.15,26.55H1238.82z"/>
	</g>
</g>
</svg>
