<?xml version="1.0" encoding="utf-8"?>
<svg width="2160px" height="952px" viewBox="0 0 2160 952" version="1.1" xmlns:xlink="http://www.w3.org/1999/xlink" xmlns="http://www.w3.org/2000/svg">
  <desc>Created with Lunacy</desc>
  <defs>
    <rect width="2160" height="952" id="artboard_1" />
    <clipPath id="clip_1">
      <use xlink:href="#artboard_1" clip-rule="evenodd" />
    </clipPath>
  </defs>
  <g id="Amazon_RDS_with_postgresql_wide" clip-path="url(#clip_1)">
    <use xlink:href="#artboard_1" stroke="none" fill="#FFFFFF" />
    <g id="Postgresql" transform="translate(1186 109)">
      <g id="Group" transform="translate(101 0)">
        <path d="M391.617 393.583C395.269 363.182 394.177 358.722 416.819 363.645L422.567 364.153C439.98 364.945 462.761 361.351 476.136 355.134C504.942 341.771 522.02 319.447 493.619 325.311C428.824 338.674 424.37 316.743 424.37 316.743C492.792 215.228 521.397 86.3676 496.709 54.8227C429.379 -31.215 312.824 9.46974 310.872 10.527L310.248 10.6483C297.445 7.98494 283.122 6.40192 267.026 6.14194C237.706 5.66241 215.457 13.8317 198.581 26.6288C198.581 26.6288 -9.34424 -59.0334 0.327228 134.355C2.38401 175.496 59.2978 445.655 127.177 364.055C151.986 334.22 175.962 308.99 175.962 308.99C187.869 316.899 202.122 320.932 217.074 319.482L218.23 318.5C217.872 322.203 218.028 325.825 218.698 330.112C201.21 349.657 206.352 353.089 171.386 360.282C136.017 367.573 156.798 380.549 170.358 383.941C186.812 388.06 224.857 393.89 250.572 357.89L249.55 361.998C256.413 367.487 255.945 401.441 256.916 425.7C257.887 449.96 259.516 472.596 264.461 485.953C269.407 499.299 275.242 533.681 321.19 523.836C359.587 515.597 388.942 503.754 391.617 393.583" transform="translate(22.27671 22.28229)" id="Shape" fill="#000000" stroke="none" />
        <path d="M328.503 570.095C308.178 570.095 294.947 562.238 286.905 554.646C274.772 543.201 269.96 528.451 267.088 519.641L265.846 515.96C260.057 500.332 258.099 477.835 256.937 448.867C256.764 444.522 256.637 440.033 256.504 435.278C256.406 431.806 256.285 427.45 256.111 422.88C248.889 426.341 241.159 428.785 233.019 430.183C218.691 432.632 203.288 431.835 187.227 427.82C175.897 424.989 164.123 419.119 157.415 410.048C137.858 427.178 119.203 424.85 109.04 421.465C91.113 415.485 75.069 398.69 59.9841 370.103C49.2438 349.749 38.8502 323.219 29.092 291.264C12.1063 235.61 1.31405 176.992 0.354996 157.753C-2.66084 97.5111 13.5507 54.4344 48.5389 29.7242C103.742 -9.2678 187.371 13.6571 217.859 24.0681C238.34 11.7217 262.438 5.70736 289.672 6.14645C304.301 6.38332 318.225 7.6717 331.16 9.97112C344.651 5.73047 371.308 -0.358964 401.819 0.0165708C458.033 0.686756 504.617 22.5949 536.526 63.3721C559.295 92.4674 548.04 153.558 539.299 187.391C527.01 234.968 505.466 285.585 479.005 329.643C486.193 329.695 496.598 328.829 511.4 325.778C540.599 319.747 549.132 335.404 551.449 342.412C560.733 370.531 520.378 391.774 507.789 397.615C491.658 405.109 465.365 409.667 443.826 408.679L442.885 408.616L437.229 408.119L436.668 412.833L436.131 417.449C434.687 473.283 426.708 508.641 410.294 532.01C393.095 556.501 369.182 563.37 348.123 567.883C340.953 569.425 334.425 570.095 328.503 570.095L328.503 570.095ZM285.737 366.879C298.858 377.377 300.008 397.13 301.03 434.048C301.157 438.652 301.279 443.014 301.441 447.088C301.937 459.417 303.099 488.292 307.617 500.494C308.258 502.216 308.83 503.972 309.431 505.821C314.469 521.258 316.999 528.995 338.786 524.326C357.083 520.409 366.483 516.891 373.843 506.41C384.543 491.17 390.529 460.532 391.626 415.317L413.881 415.86L391.777 413.209L392.424 407.691C394.544 389.504 396.069 376.354 408.231 367.665C417.983 360.691 429.105 361.367 437.961 362.962C428.232 355.619 425.54 346.987 424.824 343.452L422.969 334.312L428.18 326.57C458.223 281.991 483.002 227.203 496.163 176.252C509.683 123.897 505.557 96.0898 501.438 90.8323C446.864 21.0926 352.213 49.8817 342.333 53.1575L340.658 54.0588L332.281 55.6245L327.988 54.7347C316.161 52.2793 303.024 50.9216 288.932 50.6905C266.799 50.3208 248.947 55.5494 234.307 66.6594L224.15 74.3608L212.358 69.5019C187.18 59.2065 113.206 38.5059 74.1734 66.151C52.508 81.4959 42.6401 111.568 44.8356 155.528C45.5578 170.041 55.4256 224.979 71.6833 278.27C94.1634 351.91 114.592 376.366 123.12 379.214C124.605 379.717 128.47 376.712 132.312 372.102C157.305 342.042 181.073 316.985 182.073 315.928L194.962 302.368L210.544 312.721C216.824 316.898 223.751 319.261 230.869 319.706L268.035 288.011L262.651 342.955C262.529 344.191 262.472 345.867 262.957 348.986L264.575 359.403L257.567 367.249L256.758 368.156L277.175 377.585L285.737 366.879L285.737 366.879Z" id="Shape" fill="#000000" stroke="none" />
        <path d="M493.641 325.315C428.841 338.678 424.386 316.741 424.386 316.741C492.803 215.225 521.401 86.359 496.72 54.8198C429.384 -31.2181 312.83 9.47256 310.883 10.5298L310.253 10.6396C297.45 7.98775 283.128 6.40473 267.026 6.14474C237.705 5.66521 215.462 13.8288 198.586 26.6258C198.586 26.6258 -9.34424 -59.0308 0.327217 134.358C2.38399 175.499 59.2977 445.659 127.177 364.058C151.985 334.223 175.956 308.993 175.956 308.993C187.863 316.903 202.116 320.935 217.063 319.485L218.224 318.503C217.866 322.206 218.027 325.829 218.686 330.116C201.203 349.661 206.334 353.093 171.38 360.286C136.005 367.577 156.786 380.553 170.358 383.944C186.806 388.064 224.856 393.893 250.566 357.894L249.538 362.002C256.39 367.49 261.202 397.7 260.393 425.086C259.585 452.471 259.047 471.271 264.449 485.957C269.851 500.637 275.23 533.684 321.184 523.84C359.581 515.607 379.478 494.282 382.251 458.716C384.216 433.428 388.659 437.166 388.942 414.553L392.512 403.848C396.62 369.564 393.165 358.506 416.824 363.654L422.572 364.156C439.986 364.954 462.772 361.354 476.147 355.138C504.953 341.769 522.037 319.451 493.641 325.315L493.641 325.315Z" transform="translate(22.27092 22.27955)" id="Shape" fill="#336791" stroke="none" />
        <path d="M316.437 540.653C278.126 540.658 265.994 510.321 261.025 497.917C253.763 479.741 252.191 409.186 253.809 351.325C253.924 347.223 257.316 343.982 261.441 344.109C265.537 344.225 268.767 347.639 268.657 351.741C266.791 418.477 269.443 478.949 274.816 492.399C283.21 513.383 295.938 531.738 331.937 524.031C366.111 516.699 378.908 503.74 384.605 470.705C388.984 445.348 397.627 373.216 398.69 358.98C398.996 354.89 402.544 351.816 406.646 352.128C410.736 352.434 413.804 355.999 413.498 360.084C412.389 374.897 403.78 446.896 399.233 473.23C392.503 512.256 375.107 529.958 335.046 538.549C328.246 540 322.058 540.652 316.436 540.652L316.437 540.653ZM108.732 392.489C105.074 392.495 101.758 391.825 98.8867 390.866C74.0033 382.564 50.3042 342.041 28.4423 270.412C11.8032 215.884 1.25941 158.976 0.335018 140.483C-2.40927 85.6546 11.7166 46.859 42.3082 25.182C102.833 -17.704 204.654 23.1368 208.959 24.8931C212.754 26.4473 214.574 30.7804 213.02 34.5762C211.472 38.3662 207.133 40.1918 203.343 38.6377L203.343 38.6435C202.361 38.2391 104.722 -0.874292 50.8646 37.3204C24.7043 55.8718 12.693 90.3286 15.1599 139.749C15.9399 155.325 25.7904 210.875 42.6433 266.084C62.1595 330.023 84.3738 370.379 103.584 376.78C106.594 377.792 115.768 380.848 128.895 365.075C153.576 335.379 176.253 311.68 176.478 311.443C179.315 308.479 184.017 308.387 186.975 311.218C189.934 314.055 190.038 318.757 187.201 321.716C186.975 321.947 164.646 345.293 140.311 374.568C128.785 388.422 117.733 392.489 108.732 392.489L108.732 392.489ZM431.807 331.588C430.38 331.588 428.935 331.178 427.664 330.317C424.261 328.029 423.36 323.413 425.654 320.01C494.816 217.379 519.093 93.3775 498.3 66.8128C472.128 33.3728 435.169 15.9018 388.458 14.9023C353.869 14.1512 326.374 22.985 321.885 24.5275L320.758 24.984C316.24 26.4052 312.774 23.9267 311.468 21.0322C309.92 17.6062 311.191 13.5562 314.403 11.6092L316.402 10.7888L316.304 10.8176L316.408 10.783C324.04 7.99247 351.951 -0.384848 386.529 0.0137985C438.22 0.556879 480.915 20.4949 509.999 57.6555C523.761 75.2421 523.79 115.759 510.086 168.814C496.116 222.902 469.828 281.041 437.971 328.312C436.539 330.444 434.193 331.588 431.807 331.588L431.807 331.588ZM435.336 377.433C423.527 377.433 412.943 375.775 406.605 371.974C400.088 368.074 398.846 362.764 398.684 359.951C396.904 328.729 414.133 323.293 422.92 320.814C421.695 318.965 419.951 316.787 418.154 314.54C413.029 308.139 406.016 299.368 400.608 286.254C399.764 284.208 397.107 279.442 394.033 273.93C377.377 244.067 342.724 181.918 364.984 150.09C375.291 135.364 395.801 129.569 426.029 132.804C417.137 105.714 374.788 20.9644 274.319 19.3178C244.097 18.8094 219.312 28.1053 200.691 46.9052C158.995 89.017 160.509 165.21 160.526 165.967C160.636 170.069 157.395 173.478 153.299 173.582C149.197 173.709 145.788 170.456 145.684 166.354C145.592 162.974 144.032 83.0201 190.142 36.4538C211.72 14.6612 240.122 3.9036 274.561 4.46401C338.853 5.52128 380.225 38.1986 403.618 65.4335C429.108 95.1065 441.61 127.842 442.639 138.761C443.407 146.884 437.578 148.513 436.399 148.75L433.724 148.814C404.057 144.065 385.026 147.358 377.157 158.607C360.224 182.802 393.005 241.588 407.003 266.697C410.58 273.098 413.156 277.726 414.335 280.586C418.934 291.736 424.931 299.23 429.749 305.25C433.984 310.548 437.659 315.135 438.976 320.531C439.582 321.6 448.237 334.391 499.57 323.795C512.436 321.144 520.149 323.414 522.506 330.544C527.145 344.577 501.118 360.939 486.709 367.635C473.779 373.638 453.171 377.433 435.336 377.433L435.336 377.433ZM413.492 358.726C415.116 360.373 423.262 363.204 440.138 362.482C455.136 361.834 470.961 358.57 480.459 354.168C492.603 348.529 500.703 342.226 504.903 337.921L502.569 338.349C469.747 345.126 446.534 344.225 433.575 335.662C432.644 335.056 431.818 334.42 431.061 333.796C429.658 334.351 428.358 334.715 427.433 334.975C420.079 337.038 412.475 339.169 413.492 358.726L413.492 358.726ZM201.477 400.203C193.325 400.203 184.745 399.099 175.981 396.898C166.905 394.627 151.594 387.793 151.831 376.567C152.091 363.966 170.412 360.188 177.316 358.767C202.228 353.636 203.851 351.58 211.639 341.694C213.91 338.811 216.735 335.224 220.583 330.919C226.303 324.524 232.554 321.277 239.163 321.277C243.762 321.277 247.541 322.843 250.031 323.871C257.98 327.164 264.613 335.125 267.34 344.658C269.801 353.255 268.628 361.528 264.035 367.953C248.968 389.058 227.337 400.203 201.477 400.203L201.477 400.203ZM167.87 377.208C170.111 378.936 174.595 381.247 179.58 382.5C187.172 384.395 194.532 385.36 201.477 385.36C222.634 385.36 239.614 376.596 251.954 359.327C254.525 355.722 253.757 351.152 253.069 348.743C251.625 343.705 248.043 339.123 244.351 337.586C242.347 336.755 240.688 336.119 239.163 336.119C238.343 336.119 235.853 336.119 231.653 340.816C228.105 344.779 225.557 348.015 223.298 350.875C213.604 363.186 209.161 367.364 180.308 373.309C173.272 374.764 169.661 376.232 167.87 377.208L167.87 377.208ZM224.962 342.959C221.357 342.959 218.197 340.331 217.631 336.662C217.44 335.431 217.319 334.189 217.261 332.941C198.346 332.583 180.1 324.472 166.252 310.016C148.74 291.742 140.768 266.425 144.384 240.56C148.313 212.47 146.845 187.673 146.054 174.35C145.834 170.647 145.678 167.972 145.69 166.117C145.702 163.772 145.748 157.538 166.575 146.982C173.982 143.227 188.836 136.675 205.059 134.994C231.947 132.221 249.667 144.192 254.971 168.711C269.287 234.921 256.103 264.207 246.478 285.589C244.681 289.564 242.988 293.331 241.636 296.971L240.44 300.189C235.356 313.824 230.959 325.604 232.311 334.409C232.93 338.465 230.151 342.249 226.101 342.879L224.962 342.959L224.962 342.959ZM160.584 168.168L160.879 173.472C161.699 187.309 163.224 213.065 159.088 242.622C156.107 263.953 162.624 284.78 176.969 299.75C188.304 311.582 203.233 318.111 218.572 318.111L218.89 318.111C220.612 310.871 223.46 303.234 226.528 295.001L227.718 291.806C229.249 287.692 231.04 283.712 232.935 279.5C242.202 258.909 253.734 233.28 240.452 171.849C237.817 159.687 231.439 152.644 220.953 150.322C199.414 145.561 167.321 161.761 160.584 168.168L160.584 168.168ZM205.394 165.02C205.024 167.642 210.207 174.65 216.955 175.586C223.697 176.528 229.469 171.051 229.833 168.428C230.197 165.799 225.02 162.911 218.266 161.969C211.524 161.027 205.752 162.391 205.394 165.02L205.394 165.02ZM207.855 165.459C208.069 167.076 212.073 172.421 217.296 173.143L218.503 173.229C223.321 173.229 226.927 169.434 227.348 168.191C226.903 167.348 223.807 165.239 217.925 164.43C216.625 164.245 215.337 164.153 214.106 164.153C210.34 164.147 208.323 164.997 207.855 165.459L207.855 165.459ZM410.765 159.664C411.129 162.293 405.958 169.301 399.204 170.237C392.456 171.173 386.685 165.701 386.315 163.073C385.957 160.45 391.133 157.555 397.881 156.619C404.629 155.672 410.395 157.047 410.765 159.664L410.765 159.664ZM397.65 171.577C391.151 171.577 385.552 166.522 385.09 163.246C384.559 159.311 391.035 156.319 397.714 155.394C399.181 155.186 400.637 155.082 402.041 155.082C407.801 155.082 411.615 156.775 411.996 159.496C412.244 161.264 410.892 163.985 408.558 166.435C407.021 168.053 403.786 170.855 399.384 171.461L397.65 171.577L397.65 171.577ZM402.035 157.555C400.747 157.555 399.407 157.653 398.049 157.838C391.336 158.768 387.344 161.466 387.534 162.911C387.759 164.494 392.04 169.104 397.645 169.104L399.025 169.006C402.688 168.492 405.438 166.106 406.75 164.725C408.806 162.558 409.627 160.525 409.529 159.826C409.407 158.919 406.935 157.555 402.035 157.555L402.035 157.555ZM420.489 310.386C419.067 310.386 417.635 309.982 416.364 309.132C412.955 306.845 412.042 302.24 414.324 298.831C430.131 275.219 427.237 251.133 424.441 227.849C423.245 217.924 422.014 207.669 422.338 197.818C422.661 187.69 423.944 179.336 425.192 171.248C426.665 161.674 428.057 152.621 427.48 141.887C427.254 137.796 430.397 134.301 434.493 134.07C438.601 133.85 442.085 136.993 442.31 141.089C442.969 153.361 441.392 163.598 439.866 173.507C438.688 181.15 437.469 189.054 437.174 198.292C436.891 207.01 438.006 216.271 439.185 226.07C442.166 250.838 445.534 278.911 426.665 307.087C425.232 309.225 422.881 310.386 420.489 310.386L420.489 310.386Z" transform="translate(14.38855 15.71585)" id="Shape" fill="#EEEEEE" stroke="none" />
      </g>
      <path d="M0 2.34946C7.59759 1.08436 17.5308 0 30.1888 0C45.7246 0 57.1175 3.61456 64.3467 10.1208C71.0337 15.9042 75.0097 24.7599 75.0097 35.6106C75.0097 46.635 71.7497 55.31 65.6048 61.6356C57.2913 70.4913 43.7366 75.0096 28.3746 75.0096C23.6756 75.0096 19.3381 74.8288 15.7304 73.9252L15.7304 122.729L3.31456e-06 122.729L3.31456e-06 2.34957L0 2.34946ZM15.7304 61.0864C19.1642 61.9901 23.5017 62.3515 28.7429 62.3515C47.7125 62.3515 59.2861 53.1344 59.2861 36.3265C59.2861 20.2416 47.9002 12.4702 30.5502 12.4702C23.6824 12.4702 18.4413 13.0124 15.7304 13.7353L15.7304 61.0864L15.7304 61.0864ZM170.254 78.2557C170.254 110.606 147.836 124.71 126.691 124.71C103.015 124.71 84.7618 107.36 84.7618 79.7015C84.7618 50.4234 103.919 33.2541 128.137 33.2541C153.265 33.2472 170.254 51.5078 170.254 78.2557L170.254 78.2557ZM100.854 79.1592C100.854 98.3165 111.878 112.775 127.421 112.775C142.602 112.775 153.981 98.4972 153.981 78.7977C153.981 63.9779 146.578 45.1822 127.775 45.1822C108.973 45.1822 100.854 62.5322 100.854 79.1592L100.854 79.1592ZM188.139 106.45C192.838 109.522 201.151 112.775 209.103 112.775C220.67 112.775 226.092 106.992 226.092 99.7626C226.092 92.1719 221.581 88.0151 209.826 83.6776C194.103 78.075 186.693 69.4 186.693 58.9177C186.693 44.8209 198.079 33.2542 216.875 33.2542C225.73 33.2542 233.509 35.7844 238.388 38.676L234.412 50.2427C230.979 48.074 224.653 45.1823 216.52 45.1823C207.122 45.1823 201.881 50.6042 201.881 57.1105C201.881 64.3397 207.129 67.5928 218.515 71.9303C233.696 77.7137 241.468 85.3043 241.468 98.3168C241.468 113.679 229.54 124.522 208.756 124.522C199.177 124.522 190.321 122.173 184.177 118.558L188.139 106.45L188.139 106.45ZM281.04 10.1139L281.04 35.2352L303.805 35.2352L303.805 47.3441L281.04 47.3441L281.04 94.5144C281.04 105.358 284.106 111.503 292.969 111.503C297.125 111.503 300.198 110.961 302.186 110.419L302.909 122.347C299.843 123.612 294.957 124.516 288.819 124.516C281.409 124.516 275.438 122.166 271.642 117.829C267.131 113.13 265.498 105.358 265.498 95.0566L265.498 47.3441L251.943 47.3441L251.943 35.2353L265.498 35.2353L265.498 14.2707L281.04 10.1139L281.04 10.1139ZM395.984 35.2422C395.616 41.5677 395.261 48.6161 395.261 59.2791L395.261 110.064C395.261 130.125 391.285 142.414 382.791 150.012C374.297 157.964 362.007 160.494 350.982 160.494C340.5 160.494 328.934 157.964 321.878 153.265L325.854 141.156C331.638 144.771 340.674 148.024 351.518 148.024C367.783 148.024 379.711 139.53 379.711 117.481L379.711 107.722L379.35 107.722C374.47 115.854 365.072 122.361 351.518 122.361C329.83 122.361 314.288 103.926 314.288 79.7016C314.288 50.062 333.626 33.2542 353.686 33.2542C368.875 33.2542 377.188 41.2063 380.983 48.4355L381.345 48.4355L382.068 35.2422L395.984 35.2422L395.984 35.2422ZM379.538 69.7614C379.538 67.0505 379.357 64.701 378.634 62.5323C375.742 53.3151 367.971 45.7245 356.404 45.7245C341.216 45.7245 330.379 58.5562 330.379 78.7979C330.379 95.9672 339.054 110.245 356.224 110.245C365.983 110.245 374.839 104.1 378.273 93.9792C379.176 91.2683 379.545 88.1959 379.545 85.4849L379.545 69.7615L379.538 69.7614ZM420.556 62.5323C420.556 52.2307 420.375 43.375 419.833 35.2422L433.756 35.2422L434.292 52.4115L435.015 52.4115C438.991 40.664 448.569 33.2542 459.233 33.2542C461.04 33.2542 462.298 33.4349 463.744 33.7964L463.744 48.7969C462.124 48.4354 460.491 48.2547 458.329 48.2547C447.124 48.2547 439.164 56.749 437.003 68.6771C436.641 70.8459 436.28 73.3761 436.28 76.0871L436.28 122.715L420.556 122.715L420.556 62.5324L420.556 62.5323ZM486.71 81.8703C487.071 103.377 500.8 112.233 516.704 112.233C528.097 112.233 534.958 110.245 540.922 107.715L543.633 119.101C538.03 121.631 528.451 124.522 514.535 124.522C487.607 124.522 471.522 106.811 471.522 80.4245C471.522 54.038 487.064 33.2472 512.547 33.2472C541.102 33.2472 548.693 58.3685 548.693 74.4534C548.693 77.7066 548.332 80.2368 548.151 81.8634L486.71 81.8634L486.71 81.8703ZM533.338 70.4843C533.512 60.3635 529.174 44.6401 511.289 44.6401C495.204 44.6401 488.155 59.4598 486.883 70.4843L533.338 70.4843L533.338 70.4843Z" transform="translate(0 638.5056)" id="Shape" fill="#000000" stroke="none" />
      <path d="M3.98303 104.642C11.0315 108.979 21.3331 112.594 32.1768 112.594C48.2617 112.594 57.6596 104.1 57.6596 91.8101C57.6596 80.4242 51.1534 73.918 34.707 67.5925C14.8268 60.5441 2.5372 50.2425 2.5372 33.0733C2.5372 14.0968 18.2606 0 41.9362 0C54.4065 0 63.4429 2.89166 68.8648 5.96405L64.5273 18.7958C60.5513 16.6271 52.4185 13.0125 41.394 13.0125C24.7669 13.0125 18.4413 22.9525 18.4413 31.266C18.4413 42.6519 25.8443 48.2545 42.6591 54.7607C63.2622 62.7197 73.7445 72.6528 73.7445 90.5449C73.7445 109.341 59.8283 125.606 31.0924 125.606C19.345 125.606 6.51318 122.172 0 117.835L3.98298 104.642L3.98303 104.642ZM195.736 141.691C179.29 137.354 163.205 132.474 149.108 127.594C146.578 126.691 144.048 125.787 141.698 125.787C112.782 124.703 88.022 103.377 88.022 64.1585C88.022 25.1212 111.878 0 144.771 0C177.844 0 199.358 25.6634 199.358 61.6284C199.358 92.8944 184.9 112.955 164.658 120.004L164.658 120.727C176.767 123.799 189.96 126.691 200.262 128.498L195.736 141.691L195.736 141.691ZM182.724 62.3512C182.724 37.9529 170.08 12.8247 144.228 12.8247C117.661 12.8247 104.649 37.4038 104.83 63.7971C104.649 89.6412 118.926 112.955 143.506 112.955C168.634 112.955 182.724 90.1834 182.724 62.3512L182.724 62.3512ZM219.766 1.98804L235.497 1.98804L235.497 110.606L287.547 110.606L287.547 123.799L219.766 123.799L219.766 1.98804L219.766 1.98804Z" transform="translate(562.7832 637.4214)" id="Shape" fill="#336791" stroke="none" />
    </g>
    <g id="Group" transform="translate(120 109)">
      <g id="aws-rds" transform="translate(160.4725 0)">
        <path d="M0 372.42L56.9101 439.115L62.0273 433.037L62.0273 6.44635L56.9101 0L0 66.6699L0 372.42" transform="translate(0 54.31459)" id="Shape" fill="#1A476F" stroke="none" />
        <path d="M0 493.431L108.743 547.798L113.266 540.52L113.34 5.69634L108.819 0L3.62163e-06 54.1931L3.62163e-06 493.431" transform="translate(56.91776 0)" id="Shape" fill="#1F5B98" stroke="none" />
        <path d="M63.2916 66.6699L6.36656 0L0 2.0165L1.26458 433.671L6.36656 439.115L63.2916 372.428L63.2916 66.6699" transform="translate(422.7957 54.31459)" id="Shape" fill="#2D72B8" stroke="none" />
        <path d="M5.22166 547.798L113.965 493.431L113.965 54.1931L5.14572 0L0 6.96283L0.0740554 539.886L5.22166 547.798" transform="translate(315.1974 0)" id="Shape" fill="#5294CF" stroke="none" />
        <path d="M0 0L154.606 0L154.606 547.805L0 547.805L0 0L0 0Z" transform="translate(165.7368 0)" id="Shape" fill="#2D72B8" stroke="none" />
      </g>
      <g id="Amazon-RDS" transform="translate(0 611)">
        <path d="M760.422 122.572L760.422 139.439Q762.488 140.748 765.861 141.78Q769.235 142.813 773.021 143.536Q776.808 144.259 780.423 144.637Q784.037 145.016 786.516 145.016Q793.951 145.016 800.629 143.57Q807.308 142.125 812.437 138.889Q817.566 135.653 820.595 130.489Q823.625 125.326 823.625 117.821Q823.625 112.245 821.594 107.873Q819.563 103.501 816.086 99.9209Q812.609 96.3408 808.031 93.3804Q803.452 90.4199 798.289 87.7349Q793.263 85.5317 789.442 83.6384Q785.621 81.7451 782.97 79.7485Q780.319 77.752 778.942 75.3423Q777.565 72.9326 777.565 69.6279Q777.565 66.1167 779.355 63.6382Q781.146 61.1597 784.003 59.5762Q786.86 57.9927 790.474 57.3042Q794.089 56.6157 797.738 56.6157Q810.957 56.6157 819.356 62.6743L819.356 46.4951Q812.265 42.9839 796.774 42.9839Q789.958 42.9839 783.417 44.6018Q776.877 46.2197 771.748 49.5588Q766.619 52.8979 763.486 58.0271Q760.354 63.1563 760.354 70.1099Q760.354 75.7554 762.178 79.9551Q764.002 84.1548 767.204 87.4939Q770.405 90.833 774.743 93.5869Q779.08 96.3408 784.106 99.0259Q788.788 101.16 792.884 103.122Q796.98 105.084 800.01 107.219Q803.039 109.353 804.726 111.935Q806.413 114.517 806.413 118.028Q806.413 124.568 801.352 128.011Q796.292 131.453 785.965 131.453Q783.004 131.453 779.493 130.833Q775.982 130.214 772.471 129.078Q768.959 127.942 765.827 126.29Q762.694 124.637 760.422 122.572ZM93.2886 143.364L75.3193 143.364L66.438 118.234L27.6079 118.234L19.0708 143.364L1.17041 143.364L38.1416 44.6362L56.5928 44.6362L93.2886 143.364ZM633.192 143.364L652.332 143.364L634.775 115.618Q632.641 112.382 630.885 109.938Q629.13 107.494 627.34 105.566Q625.55 103.639 623.553 101.814Q621.557 99.9897 618.872 98.4751L618.872 98.1997Q623.897 96.8916 627.925 94.4819Q631.953 92.0723 634.81 88.6643Q637.667 85.2563 639.216 80.8845Q640.765 76.5127 640.765 71.2803Q640.765 64.6021 638.321 59.6106Q635.877 54.6191 631.54 51.28Q627.202 47.9409 621.35 46.2886Q615.498 44.6362 608.544 44.6362L576.048 44.6362L576.048 143.364L592.365 143.364L592.365 103.294L598.975 103.294Q602.073 103.294 604.551 104.052Q607.03 104.809 609.13 106.461Q611.229 108.114 613.26 110.696Q615.292 113.277 617.426 116.926L633.192 143.364ZM663.829 143.364L663.829 44.6362L692.332 44.6362Q746.928 44.6362 746.928 92.7607Q746.928 115.618 731.782 129.491Q716.635 143.364 691.162 143.364L663.829 143.364ZM592.365 90.0068L592.365 57.9238L606.135 57.9238Q614.534 57.9238 619.009 61.917Q623.484 65.9102 623.484 73.0015Q623.484 76.9258 622.176 80.0928Q620.868 83.2598 618.527 85.4629Q616.187 87.666 612.985 88.8364Q609.784 90.0068 605.997 90.0068L592.365 90.0068ZM680.146 58.5435L680.146 129.525L693.227 129.525Q710.508 129.525 720.112 120.024Q729.716 110.523 729.716 93.1738Q729.716 58.5435 693.847 58.5435L680.146 58.5435ZM62.1006 104.878L48.3999 65.4971Q47.7803 63.5693 47.0918 59.3008L46.8164 59.3008Q46.1968 63.2251 45.4395 65.4971L31.8765 104.878L62.1006 104.878ZM210.467 143.364L194.495 143.364L194.495 104.947Q194.495 93.8623 191.362 88.9053Q188.229 83.9482 180.794 83.9482Q174.529 83.9482 170.157 90.2134Q165.785 96.4785 165.785 105.222L165.785 143.364L149.744 143.364L149.744 103.639Q149.744 83.9482 135.836 83.9482Q129.365 83.9482 125.199 89.8691Q121.034 95.79 121.034 105.222L121.034 143.364L105.062 143.364L105.062 72.8638L121.034 72.8638L121.034 84.0171L121.31 84.0171Q128.952 71.2114 143.547 71.2114Q150.845 71.2114 156.319 75.239Q161.792 79.2666 163.789 85.8071Q171.637 71.2114 187.197 71.2114Q210.467 71.2114 210.467 99.9209L210.467 143.364ZM268.575 143.364L284.065 143.364L284.065 97.5112Q284.065 71.2114 257.353 71.2114Q242.757 71.2114 231.604 77.8208L231.604 91.7969Q241.724 83.1221 254.323 83.1221Q268.644 83.1221 268.644 98.1997L247.714 101.16Q224.719 104.465 224.719 124.431Q224.719 133.725 230.605 139.371Q236.492 145.016 246.888 145.016Q261.001 145.016 268.299 132.348L268.575 132.348L268.575 143.364ZM374.221 135.136Q383.963 145.016 400.28 145.016Q417.079 145.016 427.028 134.861Q436.976 124.706 436.976 107.838Q436.976 90.6265 427.75 80.9189Q418.525 71.2114 402.001 71.2114Q384.79 71.2114 374.635 81.1943Q364.479 91.1772 364.479 108.94Q364.479 125.257 374.221 135.136ZM516.013 143.364L500.041 143.364L500.041 103.639Q500.041 83.8794 486.064 83.8794Q478.767 83.8794 474.016 89.3528Q469.266 94.8262 469.266 103.157L469.266 143.364L453.224 143.364L453.224 72.8638L469.266 72.8638L469.266 84.5679L469.541 84.5679Q477.458 71.2114 492.398 71.2114Q503.896 71.2114 509.955 78.6814Q516.013 86.1514 516.013 100.265L516.013 143.364ZM317.525 130.902L355.46 130.902L355.46 143.364L295.15 143.364L295.15 137.374L334.049 85.3252L298.868 85.3252L298.868 72.8638L355.598 72.8638L355.598 79.542L317.525 130.902ZM386.235 90.4888Q391.674 83.9482 401.038 83.9482Q410.47 83.9482 415.53 90.2822Q420.59 96.6162 420.59 108.251Q420.59 119.818 415.53 126.083Q410.47 132.348 401.038 132.348Q391.812 132.348 386.304 125.98Q380.796 119.611 380.796 108.527Q380.796 97.0293 386.235 90.4888ZM253.841 110.799L268.644 108.733L268.644 114.861Q268.644 122.641 263.859 127.77Q259.074 132.899 251.776 132.899Q246.406 132.899 243.204 130.042Q240.003 127.185 240.003 122.709Q240.003 116.582 243.48 114.138Q246.957 111.694 253.841 110.799Z" />
      </g>
    </g>
  </g>
</svg>